<svg id="Layer_1" data-name="Layer 1" xmlns="http://www.w3.org/2000/svg" viewBox="0 0 512 512"><title>Browser</title><path d="M256,21.333C126.6,21.333,21.333,126.6,21.333,256S126.6,490.667,256,490.667,490.667,385.4,490.667,256,385.4,21.333,256,21.333ZM446.808,234.667H362.254c-1.969-51.649-11.06-99.823-26.107-137.44q-4.173-10.433-8.876-19.5C391.637,103.548,438.878,163.261,446.808,234.667ZM256,448c-12.7,0-28.607-19.262-40.532-49.074-13.133-32.832-21.136-75.4-23.025-121.593H319.557c-1.889,46.189-9.892,88.761-23.025,121.593C284.607,428.738,268.7,448,256,448ZM192.443,234.667c1.889-46.189,9.892-88.761,23.025-121.593C227.393,83.262,243.3,64,256,64s28.607,19.262,40.532,49.074c13.133,32.832,21.136,75.4,23.025,121.593Zm-7.721-156.94q-4.686,9.075-8.868,19.5c-15.047,37.617-24.138,85.791-26.107,137.44H65.192C73.122,163.264,120.36,103.553,184.722,77.727ZM65.192,277.333h84.554c1.969,51.649,11.06,99.823,26.107,137.44q4.17,10.426,8.866,19.5C120.358,408.446,73.122,348.736,65.192,277.333Zm262.086,156.94q4.687-9.076,8.869-19.5c15.047-37.617,24.138-85.791,26.107-137.44h84.554C438.878,348.736,391.64,408.447,327.278,434.273Z" id="id_101" style="fill: rgb(212, 212, 212);"></path></svg>